<?xml version="1.0" encoding="UTF-8"?>
<svg id="Layer_1" data-name="Layer 1" xmlns="http://www.w3.org/2000/svg" viewBox="0 0 708.85 192.45">
  <defs>
    <style>
      .cls-1 {
        fill: #fff;
      }
    </style>
  </defs>
  <g>
    <path class="cls-1" d="M93.51,44.37l-1.49,12.83c-11.53,0-17.88,1.86-19.05,5.57v.93c3.97,4.83,5.95,10.35,5.95,16.54,0,9.67-3.17,17.65-9.53,23.94-6.35,6.29-16.16,9.43-29.41,9.43-5.89,0-10.57-.62-14.04-1.86-3.04,2.17-4.56,4.87-4.56,8.09,0,3.96,1.79,6.6,5.39,7.9,4.58,1.73,14.16,2.6,28.72,2.6,23.55,0,35.33,7.81,35.33,23.42,0,11.16-4.59,20.39-13.76,27.71-9.17,7.31-21.04,10.97-35.6,10.97s-25.58-2.71-31.93-8.14c-6.36-5.42-9.53-11.94-9.53-19.57,0-6.94,1.57-12.51,4.69-16.73,3.13-4.21,7.02-6.82,11.67-7.81v-.84c-4.9-2.35-7.34-6.87-7.34-13.57,0-6.07,3.1-11.4,9.29-15.98v-.75c-3.28-1.61-6.41-4.33-9.38-8.18-2.98-3.84-4.46-8.61-4.46-14.31,0-9.85,3.25-17.87,9.76-24.08,6.51-6.19,15.92-9.29,28.26-9.29,10.1,0,18.03,1.83,23.79,5.49h1.03c1.98-10.47,7.19-15.71,15.62-15.71,4.58,0,8.12.46,10.59,1.39M76.87,160.1c0-5.83-2.12-9.93-6.36-12.31-4.25-2.39-12.23-3.58-23.94-3.58-7.93,0-15.18-.37-21.75-1.12-7.56,3.66-11.34,9.02-11.34,16.08,0,15.12,9.92,22.68,29.74,22.68,10.35,0,18.54-2.02,24.59-6.04,6.04-4.03,9.06-9.27,9.06-15.71M63.95,84.07c0-6.81-2.15-12.04-6.46-15.66-4.31-3.62-9.77-5.44-16.41-5.44-6.26,0-11.49,1.75-15.71,5.25-4.21,3.5-6.32,8.47-6.32,14.92s2.16,11.89,6.46,15.42c4.31,3.54,9.83,5.3,16.59,5.3,6.19,0,11.39-1.72,15.57-5.16,4.18-3.44,6.27-8.32,6.27-14.64"/>
    <path class="cls-1" d="M176.51,89.83c0,2.61-.12,6.2-.37,10.79l-63.86,1.11c.62,9.05,4.12,16.62,10.5,22.73,6.38,6.1,14.84,9.15,25.38,9.15,9.41,0,18.25-1.14,26.48-3.44l-1.57,13.11c-6.07,2.42-14.84,3.62-26.3,3.62-16.12,0-28.4-4.39-36.86-13.2-8.46-8.79-12.69-19.52-12.69-32.16,0-13.5,3.86-25.15,11.57-34.91,7.71-9.75,18.08-14.63,31.09-14.63,11.96,0,21.05,3.53,27.28,10.6,6.23,7.07,9.34,16.15,9.34,27.23M160.99,90.01c0-17.41-7.28-26.11-21.85-26.11s-23.64,9.04-26.3,27.13l48.15-1.02Z"/>
    <path class="cls-1" d="M269.45,89.83c0,2.61-.12,6.2-.38,10.79l-63.85,1.11c.61,9.05,4.11,16.62,10.5,22.73,6.38,6.1,14.84,9.15,25.38,9.15,9.42,0,18.25-1.14,26.49-3.44l-1.58,13.11c-6.07,2.42-14.84,3.62-26.3,3.62-16.11,0-28.4-4.39-36.86-13.2-8.46-8.79-12.68-19.52-12.68-32.16,0-13.5,3.85-25.15,11.57-34.91,7.71-9.75,18.08-14.63,31.09-14.63,11.96,0,21.05,3.53,27.28,10.6,6.22,7.07,9.34,16.15,9.34,27.23M253.92,90.01c0-17.41-7.28-26.11-21.85-26.11s-23.64,9.04-26.3,27.13l48.15-1.02Z"/>
    <path class="cls-1" d="M365.82,144.39h-21.84c0-2.16-6.01-10.43-18.03-24.81-12.33-14.81-20.08-22.21-23.24-22.21h-.65c0,13.26.34,28.94,1.02,47.03h-16.36c.81-22.68,1.21-45.79,1.21-69.34s-.9-44.46-2.69-61.44l17.85-.93c-.68,13.39-1.02,39.38-1.02,77.99h.65c2.05,0,8.48-5.23,19.29-15.67,10.81-10.44,16.21-16.75,16.21-18.91h20.54c0,1.98-4.86,7.12-14.58,15.43-9.11,7.74-17.45,14.12-25,19.15v.74c7.68,5.82,17.56,15.8,29.64,29.93,11.34,13.32,17.01,21,17.01,23.04"/>
    <path class="cls-1" d="M454.47,144.3l-13.85.46c-.5-2.66-.74-5.49-.74-8.46h-1.02c-6.51,7.06-16.17,10.59-29,10.59-11.78,0-21.15-4.28-28.12-12.83-6.97-8.55-10.46-18.87-10.46-30.96,0-13.69,3.87-25.49,11.61-35.41,7.75-9.91,18.65-14.87,32.72-14.87,10.04,0,17.23,2.05,21.57,6.14h.74c0-15.37-.44-30.45-1.3-45.27l17.66-.65c-1.18,15.74-1.77,36.34-1.77,61.81s.65,49.05,1.94,69.44M439.51,125.99c0-19.27-.53-37.83-1.58-55.68-5.02-4.15-11.28-6.22-18.78-6.22-10.47,0-18.31,3.49-23.51,10.46-5.21,6.97-7.81,15.73-7.81,26.26,0,9.42,2.46,17.35,7.39,23.8,4.92,6.45,11.76,9.66,20.5,9.66,10.98,0,18.9-2.76,23.8-8.27"/>
    <path class="cls-1" d="M556.28,96.11c0,15.86-4.56,28.24-13.66,37.13-9.11,8.9-19.83,13.34-32.17,13.34-11.53,0-21.43-3.94-29.7-11.8-8.27-7.88-12.4-18.96-12.4-33.28,0-16,4.56-28.48,13.71-37.46,9.14-8.99,19.87-13.48,32.21-13.48,11.52,0,21.41,3.98,29.64,11.94,8.25,7.97,12.37,19.16,12.37,33.6M540.2,99.36c0-9.66-2.43-18.26-7.3-25.79-4.87-7.53-11.79-11.29-20.78-11.29s-15.79,3.56-20.59,10.69c-4.79,7.13-7.2,15.4-7.2,24.81s2.43,18.34,7.29,25.84c4.87,7.5,11.82,11.25,20.86,11.25s15.78-3.58,20.54-10.74c4.77-7.16,7.16-15.41,7.16-24.77"/>
    <path class="cls-1" d="M694.07,90.57c0-9.92-1.72-16.47-5.16-19.66-3.44-3.19-9.09-4.78-16.96-4.78-6.63,0-13.48,3.25-20.54,9.76-.26,7.57-.38,14.97-.38,22.22,0,10.35.18,25.78.56,46.29h-16.92c1.36-17.66,2.04-35.6,2.04-53.82,0-9.92-1.72-16.47-5.15-19.66-3.44-3.19-8.95-4.78-16.51-4.78s-15,3.25-21.75,9.76c0,19.65.13,42.48.38,68.51h-16.93c1.18-21.07,1.77-36.31,1.77-45.73,0-14.31-1.39-28.39-4.19-42.2l16.37-2.32,1.67,11.25h.93c8.06-8.24,17.01-12.36,26.87-12.36,14.69,0,24.14,4.12,28.35,12.36h1.02c9.36-8.24,18.59-12.36,27.7-12.36,10.41,0,18.27,2.29,23.61,6.88,5.33,4.59,7.99,12.67,7.99,24.25,0,1.18-.06,3.51-.18,6.98-.13,3.47-.19,5.8-.19,6.97,0,10.35.12,25.78.37,46.29h-16.92c1.44-16.23,2.15-34.17,2.15-53.82"/>
  </g>
  <g>
    <path class="cls-1" d="M487.99,57.82l-1.51-51.04,12.72,29.84,12.42-28.05,7.91,30.75,18.16-26.58,3.26,32.08,22.78-22.11-5.07,31.32,27.23-20.86-31.56,46.97s-21.25-33.2-66.33-22.31Z"/>
    <path class="cls-1" d="M489.16,3.93c-.46,1.64-2.18,2.59-3.84,2.13-1.66-.47-2.63-2.17-2.17-3.81.46-1.64,2.18-2.59,3.84-2.12,1.66.47,2.62,2.17,2.17,3.81Z"/>
    <path class="cls-1" d="M515.13,5.25c-.46,1.64-2.18,2.59-3.84,2.12-1.66-.47-2.63-2.17-2.17-3.81.46-1.64,2.18-2.59,3.83-2.12,1.66.47,2.63,2.18,2.17,3.81Z"/>
    <path class="cls-1" d="M568.65,20.1c-.46,1.64-2.17,2.59-3.83,2.12-1.66-.46-2.63-2.17-2.17-3.81.46-1.64,2.18-2.59,3.83-2.12,1.66.47,2.63,2.18,2.16,3.81Z"/>
    <path class="cls-1" d="M544.87,8.01c-.73,2.62-3.47,4.14-6.11,3.39-2.65-.74-4.2-3.46-3.46-6.08.73-2.61,3.48-4.13,6.12-3.39,2.65.75,4.19,3.47,3.45,6.09Z"/>
    <path class="cls-1" d="M591.44,31.26c-.46,1.64-2.18,2.59-3.83,2.12-1.66-.47-2.64-2.18-2.17-3.82.46-1.64,2.18-2.59,3.84-2.12,1.66.47,2.62,2.17,2.16,3.81Z"/>
  </g>
</svg>