<svg xmlns="http://www.w3.org/2000/svg" xmlns:xlink="http://www.w3.org/1999/xlink" width="1600" zoomAndPan="magnify" viewBox="0 0 1200 299.999988" height="400" preserveAspectRatio="xMidYMid meet" version="1.0"><defs><g/><clipPath id="a770757f07"><path d="M 9 156 L 24 156 L 24 245.878906 L 9 245.878906 Z M 9 156 " clip-rule="nonzero"/></clipPath><clipPath id="453279a1fb"><path d="M 227 187 L 242 187 L 242 245.878906 L 227 245.878906 Z M 227 187 " clip-rule="nonzero"/></clipPath><clipPath id="18a6a611c5"><rect x="0" width="146" y="0" height="163"/></clipPath><clipPath id="e9ccc92eee"><path d="M 210 39 L 1129.480469 39 L 1129.480469 202 L 210 202 Z M 210 39 " clip-rule="nonzero"/></clipPath><clipPath id="54fe87deb2"><rect x="0" width="920" y="0" height="163"/></clipPath><clipPath id="139895325f"><path d="M 0.761719 99 L 25 99 L 25 127 L 0.761719 127 Z M 0.761719 99 " clip-rule="nonzero"/></clipPath><clipPath id="6cd6088a29"><path d="M 35.710938 110.117188 L 12.925781 136.460938 L 0.988281 126.132812 L 23.777344 99.792969 Z M 35.710938 110.117188 " clip-rule="nonzero"/></clipPath><clipPath id="150f395cfd"><path d="M 24.320312 123.285156 L 0.992188 126.128906 L 23.777344 99.792969 Z M 24.320312 123.285156 " clip-rule="nonzero"/></clipPath><clipPath id="c51aa35956"><path d="M 0.761719 0.71875 L 24.519531 0.71875 L 24.519531 27.359375 L 0.761719 27.359375 Z M 0.761719 0.71875 " clip-rule="nonzero"/></clipPath><clipPath id="b579cfac5b"><path d="M 35.710938 11.117188 L 12.925781 37.460938 L 0.988281 27.132812 L 23.777344 0.792969 Z M 35.710938 11.117188 " clip-rule="nonzero"/></clipPath><clipPath id="a798dd1c5b"><path d="M 24.320312 24.285156 L 0.992188 27.128906 L 23.777344 0.792969 Z M 24.320312 24.285156 " clip-rule="nonzero"/></clipPath><clipPath id="bef712f36d"><rect x="0" width="25" y="0" height="28"/></clipPath><clipPath id="2d28700ea2"><path d="M 14 120 L 38 120 L 38 147 L 14 147 Z M 14 120 " clip-rule="nonzero"/></clipPath><clipPath id="526618a92f"><path d="M 3.015625 135.546875 L 26.214844 109.566406 L 37.988281 120.078125 L 14.789062 146.058594 Z M 3.015625 135.546875 " clip-rule="nonzero"/></clipPath><clipPath id="b6977dbaaf"><path d="M 14.613281 122.558594 L 37.984375 120.082031 L 14.789062 146.058594 Z M 14.613281 122.558594 " clip-rule="nonzero"/></clipPath><clipPath id="0ab2e3878b"><path d="M 0.441406 0 L 24 0 L 24 26.28125 L 0.441406 26.28125 Z M 0.441406 0 " clip-rule="nonzero"/></clipPath><clipPath id="4069686ef3"><path d="M -10.984375 15.546875 L 12.214844 -10.433594 L 23.988281 0.078125 L 0.789062 26.058594 Z M -10.984375 15.546875 " clip-rule="nonzero"/></clipPath><clipPath id="1a547ea10f"><path d="M 0.613281 2.558594 L 23.984375 0.0820312 L 0.789062 26.058594 Z M 0.613281 2.558594 " clip-rule="nonzero"/></clipPath><clipPath id="a7167df666"><rect x="0" width="24" y="0" height="27"/></clipPath><clipPath id="0dcd5de6d7"><rect x="0" width="1130" y="0" height="246"/></clipPath></defs><g transform="matrix(1, 0, 0, 1, 29, 27)"><g clip-path="url(#0dcd5de6d7)"><path stroke-linecap="butt" transform="matrix(0.86536, 0.000000000000000046, -0.000000000000000046, 0.86536, 9.920322, 7.220915)" fill="none" stroke-linejoin="miter" d="M 0.00179423 8.000849 L 267.664901 8.000849 " stroke="#000000" stroke-width="16" stroke-opacity="1" stroke-miterlimit="4"/><path stroke-linecap="butt" transform="matrix(0, -0.86536, 0.86536, 0, 9.991657, 82.169926)" fill="none" stroke-linejoin="miter" d="M -0.00225191 7.99945 L 78.609341 7.99945 " stroke="#000000" stroke-width="16" stroke-opacity="1" stroke-miterlimit="4"/><g clip-path="url(#a770757f07)"><path stroke-linecap="butt" transform="matrix(0, -0.86536, 0.86536, 0, 9.986193, 238.772877)" fill="none" stroke-linejoin="miter" d="M -0.000647135 8.00125 L 87.593838 8.00125 " stroke="#000000" stroke-width="16" stroke-opacity="1" stroke-miterlimit="4"/></g><path stroke-linecap="butt" transform="matrix(-0.86536, 0, 0, -0.86536, 241.539388, 238.707019)" fill="none" stroke-linejoin="miter" d="M 0.000375573 7.998823 L 267.663482 7.998823 " stroke="#000000" stroke-width="16" stroke-opacity="1" stroke-miterlimit="4"/><g clip-path="url(#453279a1fb)"><path stroke-linecap="butt" transform="matrix(0, -0.86536, 0.86536, 0, 227.626361, 238.777157)" fill="none" stroke-linejoin="miter" d="M -0.000216159 8.001778 L 51.676242 8.001778 " stroke="#000000" stroke-width="16" stroke-opacity="1" stroke-miterlimit="4"/></g><path stroke-linecap="butt" transform="matrix(0, -0.86536, 0.86536, 0, 227.622581, 46.803745)" fill="none" stroke-linejoin="miter" d="M -0.00108894 8.001633 L 44.042167 8.001633 " stroke="#000000" stroke-width="16" stroke-opacity="1" stroke-miterlimit="4"/><g transform="matrix(1, 0, 0, 1, 70, 39)"><g clip-path="url(#18a6a611c5)"><g fill="#000000" fill-opacity="1"><g transform="translate(0.573419, 130.579612)"><g><path d="M 30.1875 1.3125 C 21.695312 1.3125 15.382812 -0.9375 11.25 -5.4375 C 7.113281 -9.9375 4.898438 -17.085938 4.609375 -26.890625 L 21.40625 -29.40625 C 21.476562 -23.78125 22.15625 -19.738281 23.4375 -17.28125 C 24.71875 -14.832031 26.632812 -13.609375 29.1875 -13.609375 C 32.476562 -13.609375 34.125 -15.765625 34.125 -20.078125 C 34.125 -23.523438 33.335938 -26.488281 31.765625 -28.96875 C 30.191406 -31.457031 27.722656 -34.128906 24.359375 -36.984375 L 16.6875 -43.6875 C 12.875 -46.90625 9.925781 -50.320312 7.84375 -53.9375 C 5.757812 -57.5625 4.71875 -61.863281 4.71875 -66.84375 C 4.71875 -74.300781 6.929688 -80.039062 11.359375 -84.0625 C 15.785156 -88.09375 21.875 -90.109375 29.625 -90.109375 C 38.039062 -90.109375 43.765625 -87.65625 46.796875 -82.75 C 49.835938 -77.84375 51.46875 -71.878906 51.6875 -64.859375 L 34.796875 -62.78125 C 34.648438 -67.382812 34.226562 -70.691406 33.53125 -72.703125 C 32.832031 -74.722656 31.3125 -75.734375 28.96875 -75.734375 C 27.289062 -75.734375 25.992188 -75.019531 25.078125 -73.59375 C 24.160156 -72.164062 23.703125 -70.570312 23.703125 -68.8125 C 23.703125 -65.8125 24.378906 -63.285156 25.734375 -61.234375 C 27.085938 -59.191406 29.265625 -56.851562 32.265625 -54.21875 L 39.625 -47.734375 C 44.007812 -44.003906 47.410156 -40.050781 49.828125 -35.875 C 52.242188 -31.707031 53.453125 -26.773438 53.453125 -21.078125 C 53.453125 -16.898438 52.476562 -13.109375 50.53125 -9.703125 C 48.59375 -6.304688 45.867188 -3.617188 42.359375 -1.640625 C 38.847656 0.328125 34.789062 1.3125 30.1875 1.3125 Z M 30.1875 1.3125 "/></g></g></g><g fill="#000000" fill-opacity="1"><g transform="translate(56.104962, 130.579612)"><g><path d="M 19.09375 -88.890625 L 41.484375 -88.890625 L 58.0625 0 L 39.953125 0 L 36.984375 -18.765625 L 23.921875 -18.765625 L 20.859375 0 L 2.3125 0 Z M 35.125 -30.515625 L 30.40625 -65.1875 L 25.6875 -30.515625 Z M 35.125 -30.515625 "/></g></g></g><g fill="#000000" fill-opacity="1"><g transform="translate(116.577308, 130.579612)"><g/></g></g></g></g><g clip-path="url(#e9ccc92eee)"><g transform="matrix(1, 0, 0, 1, 210, 39)"><g clip-path="url(#54fe87deb2)"><g fill="#000000" fill-opacity="1"><g transform="translate(0.688007, 130.579612)"><g><path d="M 27.875 0.984375 C 20.414062 0.984375 14.726562 -1.316406 10.8125 -5.921875 C 6.894531 -10.535156 4.71875 -16.863281 4.28125 -24.90625 L 15.25 -27.875 C 15.613281 -22.164062 16.726562 -17.554688 18.59375 -14.046875 C 20.46875 -10.535156 23.5625 -8.78125 27.875 -8.78125 C 31.09375 -8.78125 33.523438 -9.675781 35.171875 -11.46875 C 36.816406 -13.257812 37.640625 -15.835938 37.640625 -19.203125 C 37.640625 -22.859375 36.867188 -25.894531 35.328125 -28.3125 C 33.796875 -30.726562 31.347656 -33.398438 27.984375 -36.328125 L 13.0625 -49.5 C 10.0625 -52.132812 7.882812 -54.96875 6.53125 -58 C 5.175781 -61.039062 4.5 -64.753906 4.5 -69.140625 C 4.5 -75.648438 6.363281 -80.695312 10.09375 -84.28125 C 13.820312 -87.875 18.910156 -89.671875 25.359375 -89.671875 C 32.378906 -89.671875 37.679688 -87.800781 41.265625 -84.0625 C 44.847656 -80.332031 47.003906 -74.554688 47.734375 -66.734375 L 37.203125 -63.875 C 36.835938 -69.070312 35.832031 -73.078125 34.1875 -75.890625 C 32.539062 -78.710938 29.597656 -80.125 25.359375 -80.125 C 22.210938 -80.125 19.796875 -79.296875 18.109375 -77.640625 C 16.421875 -75.992188 15.578125 -73.5625 15.578125 -70.34375 C 15.578125 -67.71875 16.015625 -65.503906 16.890625 -63.703125 C 17.773438 -61.910156 19.28125 -60.101562 21.40625 -58.28125 L 36.4375 -45.109375 C 40.3125 -41.671875 43.398438 -37.9375 45.703125 -33.90625 C 48.015625 -29.882812 49.171875 -25.3125 49.171875 -20.1875 C 49.171875 -13.675781 47.191406 -8.519531 43.234375 -4.71875 C 39.285156 -0.914062 34.164062 0.984375 27.875 0.984375 Z M 27.875 0.984375 "/></g></g></g><g fill="#000000" fill-opacity="1"><g transform="translate(52.597931, 130.579612)"><g><path d="M 16.6875 -79.671875 L 1.640625 -79.671875 L 1.640625 -88.890625 L 43.6875 -88.890625 L 43.6875 -79.671875 L 29.078125 -79.671875 L 29.078125 0 L 16.6875 0 Z M 16.6875 -79.671875 "/></g></g></g><g fill="#000000" fill-opacity="1"><g transform="translate(97.703588, 130.579612)"><g><path d="M 20.96875 -88.890625 L 32.921875 -88.890625 L 51.90625 0 L 40.171875 0 L 36.109375 -22.390625 L 18 -22.390625 L 13.71875 0 L 2.078125 0 Z M 34.46875 -31.28125 L 27 -71.34375 L 19.640625 -31.28125 Z M 34.46875 -31.28125 "/></g></g></g><g fill="#000000" fill-opacity="1"><g transform="translate(151.698693, 130.579612)"><g><path d="M 6.921875 -88.890625 L 24.796875 -88.890625 C 33.796875 -88.890625 40.398438 -87.039062 44.609375 -83.34375 C 48.816406 -79.65625 50.921875 -73.640625 50.921875 -65.296875 C 50.921875 -53.890625 47.265625 -46.976562 39.953125 -44.5625 L 52.5625 0 L 40.609375 0 L 28.96875 -41.703125 L 19.3125 -41.703125 L 19.3125 0 L 6.921875 0 Z M 24.03125 -50.59375 C 29.375 -50.59375 33.195312 -51.648438 35.5 -53.765625 C 37.8125 -55.890625 38.96875 -59.734375 38.96875 -65.296875 C 38.96875 -68.953125 38.5625 -71.820312 37.75 -73.90625 C 36.945312 -76 35.519531 -77.535156 33.46875 -78.515625 C 31.425781 -79.503906 28.535156 -80 24.796875 -80 L 19.3125 -80 L 19.3125 -50.59375 Z M 24.03125 -50.59375 "/></g></g></g><g fill="#000000" fill-opacity="1"><g transform="translate(208.656925, 130.579612)"><g><path d="M 16.6875 -79.671875 L 1.640625 -79.671875 L 1.640625 -88.890625 L 43.6875 -88.890625 L 43.6875 -79.671875 L 29.078125 -79.671875 L 29.078125 0 L 16.6875 0 Z M 16.6875 -79.671875 "/></g></g></g><g fill="#000000" fill-opacity="1"><g transform="translate(253.982091, 130.579612)"><g><path d="M 29.859375 0.984375 C 23.628906 0.984375 18.773438 -0.253906 15.296875 -2.734375 C 11.828125 -5.222656 9.429688 -8.695312 8.109375 -13.15625 C 6.796875 -17.625 6.140625 -23.226562 6.140625 -29.96875 L 6.140625 -88.890625 L 18 -88.890625 L 18 -29.40625 C 18 -22.675781 18.785156 -17.554688 20.359375 -14.046875 C 21.929688 -10.535156 25.097656 -8.78125 29.859375 -8.78125 C 34.609375 -8.78125 37.769531 -10.535156 39.34375 -14.046875 C 40.914062 -17.554688 41.703125 -22.675781 41.703125 -29.40625 L 41.703125 -88.890625 L 53.453125 -88.890625 L 53.453125 -29.96875 C 53.453125 -23.226562 52.789062 -17.625 51.46875 -13.15625 C 50.15625 -8.695312 47.78125 -5.222656 44.34375 -2.734375 C 40.90625 -0.253906 36.078125 0.984375 29.859375 0.984375 Z M 29.859375 0.984375 "/></g></g></g><g fill="#000000" fill-opacity="1"><g transform="translate(313.574238, 130.579612)"><g><path d="M 6.921875 -88.890625 L 28.96875 -88.890625 C 36.65625 -88.890625 42.234375 -86.804688 45.703125 -82.640625 C 49.179688 -78.472656 50.921875 -72.363281 50.921875 -64.3125 C 50.921875 -57.070312 49.054688 -51.4375 45.328125 -47.40625 C 41.597656 -43.382812 36.179688 -41.375 29.078125 -41.375 L 19.3125 -41.375 L 19.3125 0 L 6.921875 0 Z M 25.015625 -50.265625 C 28.679688 -50.265625 31.519531 -50.664062 33.53125 -51.46875 C 35.539062 -52.28125 36.984375 -53.671875 37.859375 -55.640625 C 38.742188 -57.617188 39.1875 -60.472656 39.1875 -64.203125 C 39.1875 -68.742188 38.851562 -72.070312 38.1875 -74.1875 C 37.53125 -76.3125 36.234375 -77.8125 34.296875 -78.6875 C 32.359375 -79.5625 29.300781 -80 25.125 -80 L 19.3125 -80 L 19.3125 -50.265625 Z M 25.015625 -50.265625 "/></g></g></g><g fill="#000000" fill-opacity="1"><g transform="translate(366.252392, 130.579612)"><g/></g></g><g fill="#000000" fill-opacity="1"><g transform="translate(391.384254, 130.579612)"><g><path d="M 18.109375 -41.15625 L 2.75 -41.15625 L 2.75 -50.046875 L 18.109375 -50.046875 L 18.109375 -67.9375 L 26.890625 -67.9375 L 26.890625 -50.046875 L 42.796875 -50.046875 L 42.796875 -41.15625 L 26.890625 -41.15625 L 26.890625 -23.265625 L 18.109375 -23.265625 Z M 18.109375 -41.15625 "/></g></g></g><g fill="#000000" fill-opacity="1"><g transform="translate(436.92894, 130.579612)"><g/></g></g><g fill="#000000" fill-opacity="1"><g transform="translate(462.060803, 130.579612)"><g><path d="M 16.6875 -79.671875 L 1.640625 -79.671875 L 1.640625 -88.890625 L 43.6875 -88.890625 L 43.6875 -79.671875 L 29.078125 -79.671875 L 29.078125 0 L 16.6875 0 Z M 16.6875 -79.671875 "/></g></g></g><g fill="#000000" fill-opacity="1"><g transform="translate(507.385946, 130.579612)"><g><path d="M 6.921875 -88.890625 L 41.375 -88.890625 L 41.375 -79.671875 L 19.3125 -79.671875 L 19.3125 -50.265625 L 37.203125 -50.265625 L 37.203125 -41.484375 L 19.3125 -41.484375 L 19.3125 -8.890625 L 41.59375 -8.890625 L 41.59375 0 L 6.921875 0 Z M 6.921875 -88.890625 "/></g></g></g><g fill="#000000" fill-opacity="1"><g transform="translate(552.052642, 130.579612)"><g><path d="M 29.1875 0.984375 C 20.414062 0.984375 14.234375 -1.628906 10.640625 -6.859375 C 7.054688 -12.085938 5.265625 -19.3125 5.265625 -28.53125 L 5.265625 -59.921875 C 5.265625 -69.648438 7.019531 -77.039062 10.53125 -82.09375 C 14.039062 -87.144531 20.257812 -89.671875 29.1875 -89.671875 C 37.164062 -89.671875 42.890625 -87.507812 46.359375 -83.1875 C 49.835938 -78.875 51.578125 -72.507812 51.578125 -64.09375 L 51.578125 -57.0625 L 39.84375 -57.0625 L 39.84375 -63.328125 C 39.84375 -67.421875 39.65625 -70.566406 39.28125 -72.765625 C 38.914062 -74.960938 37.984375 -76.71875 36.484375 -78.03125 C 34.984375 -79.34375 32.585938 -80 29.296875 -80 C 25.929688 -80 23.425781 -79.285156 21.78125 -77.859375 C 20.132812 -76.441406 19.054688 -74.46875 18.546875 -71.9375 C 18.035156 -69.414062 17.78125 -66.035156 17.78125 -61.796875 L 17.78125 -26.5625 C 17.78125 -22.019531 18.144531 -18.46875 18.875 -15.90625 C 19.601562 -13.351562 20.789062 -11.523438 22.4375 -10.421875 C 24.082031 -9.328125 26.367188 -8.78125 29.296875 -8.78125 C 32.441406 -8.78125 34.78125 -9.472656 36.3125 -10.859375 C 37.851562 -12.253906 38.828125 -14.15625 39.234375 -16.5625 C 39.640625 -18.976562 39.84375 -22.273438 39.84375 -26.453125 L 39.84375 -33.03125 L 51.578125 -33.03125 L 51.578125 -26.453125 C 51.578125 -17.597656 49.910156 -10.8125 46.578125 -6.09375 C 43.253906 -1.375 37.457031 0.984375 29.1875 0.984375 Z M 29.1875 0.984375 "/></g></g></g><g fill="#000000" fill-opacity="1"><g transform="translate(608.57189, 130.579612)"><g><path d="M 6.921875 -88.890625 L 19.3125 -88.890625 L 19.3125 -50.484375 L 42.140625 -50.484375 L 42.140625 -88.890625 L 54.546875 -88.890625 L 54.546875 0 L 42.140625 0 L 42.140625 -41.59375 L 19.3125 -41.59375 L 19.3125 0 L 6.921875 0 Z M 6.921875 -88.890625 "/></g></g></g><g fill="#000000" fill-opacity="1"><g transform="translate(670.139447, 130.579612)"><g/></g></g><g fill="#000000" fill-opacity="1"><g transform="translate(695.27131, 130.579612)"><g><path d="M 3.953125 -88.890625 L 14.265625 -88.890625 L 23.8125 -25.015625 L 35.78125 -88.5625 L 44.5625 -88.5625 L 56.625 -24.6875 L 65.953125 -88.890625 L 76.0625 -88.890625 L 61.796875 0 L 52.796875 0 L 40.390625 -65.84375 L 27.875 0 L 18.4375 0 Z M 3.953125 -88.890625 "/></g></g></g><g fill="#000000" fill-opacity="1"><g transform="translate(775.276303, 130.579612)"><g><path d="M 6.921875 -88.890625 L 41.375 -88.890625 L 41.375 -79.671875 L 19.3125 -79.671875 L 19.3125 -50.265625 L 37.203125 -50.265625 L 37.203125 -41.484375 L 19.3125 -41.484375 L 19.3125 -8.890625 L 41.59375 -8.890625 L 41.59375 0 L 6.921875 0 Z M 6.921875 -88.890625 "/></g></g></g><g fill="#000000" fill-opacity="1"><g transform="translate(819.942953, 130.579612)"><g><path d="M 6.921875 -88.890625 L 41.375 -88.890625 L 41.375 -79.671875 L 19.3125 -79.671875 L 19.3125 -50.265625 L 37.203125 -50.265625 L 37.203125 -41.484375 L 19.3125 -41.484375 L 19.3125 -8.890625 L 41.59375 -8.890625 L 41.59375 0 L 6.921875 0 Z M 6.921875 -88.890625 "/></g></g></g><g fill="#000000" fill-opacity="1"><g transform="translate(864.609603, 130.579612)"><g><path d="M 6.921875 -88.890625 L 19.3125 -88.890625 L 19.3125 -46.96875 L 39.734375 -88.890625 L 51.25 -88.890625 L 33.6875 -49.71875 L 54.109375 0 L 42.03125 0 L 25.015625 -41.703125 L 19.3125 -31.390625 L 19.3125 0 L 6.921875 0 Z M 6.921875 -88.890625 "/></g></g></g></g></g></g><g clip-path="url(#139895325f)"><g clip-path="url(#6cd6088a29)"><g clip-path="url(#150f395cfd)"><g transform="matrix(1, 0, 0, 1, 0, 99)"><g clip-path="url(#bef712f36d)"><g clip-path="url(#c51aa35956)"><g clip-path="url(#b579cfac5b)"><g clip-path="url(#a798dd1c5b)"><path fill="#000000" d="M 35.710938 11.117188 L 12.925781 37.460938 L 0.988281 27.132812 L 23.777344 0.792969 Z M 35.710938 11.117188 " fill-opacity="1" fill-rule="nonzero"/></g></g></g></g></g></g></g></g><g clip-path="url(#2d28700ea2)"><g clip-path="url(#526618a92f)"><g clip-path="url(#b6977dbaaf)"><g transform="matrix(1, 0, 0, 1, 14, 120)"><g clip-path="url(#a7167df666)"><g clip-path="url(#0ab2e3878b)"><g clip-path="url(#4069686ef3)"><g clip-path="url(#1a547ea10f)"><path fill="#000000" d="M -10.984375 15.546875 L 12.214844 -10.433594 L 23.988281 0.078125 L 0.789062 26.058594 Z M -10.984375 15.546875 " fill-opacity="1" fill-rule="nonzero"/></g></g></g></g></g></g></g></g></g></g></svg>