<svg xmlns="http://www.w3.org/2000/svg" xmlns:xlink="http://www.w3.org/1999/xlink" width="500" zoomAndPan="magnify" viewBox="0 0 375 374.999991" height="500" preserveAspectRatio="xMidYMid meet" version="1.0"><defs><clipPath id="5ed9fe14e1"><path d="M 56 23 L 222 23 L 222 211 L 56 211 Z M 56 23 " clip-rule="nonzero"/></clipPath><clipPath id="8add1ee55d"><path d="M 302.601562 96.625 L 140.964844 283.480469 L 56.300781 210.246094 L 217.9375 23.386719 Z M 302.601562 96.625 " clip-rule="nonzero"/></clipPath><clipPath id="e30b5e443e"><path d="M 221.796875 190.039062 L 56.324219 210.214844 L 217.9375 23.386719 Z M 221.796875 190.039062 " clip-rule="nonzero"/></clipPath><clipPath id="c141b2b2cb"><path d="M 0.160156 0.28125 L 166 0.28125 L 166 187.238281 L 0.160156 187.238281 Z M 0.160156 0.28125 " clip-rule="nonzero"/></clipPath><clipPath id="6bc63f3116"><path d="M 246.601562 73.625 L 84.964844 260.480469 L 0.300781 187.246094 L 161.9375 0.386719 Z M 246.601562 73.625 " clip-rule="nonzero"/></clipPath><clipPath id="94e33085f3"><path d="M 165.796875 167.039062 L 0.324219 187.214844 L 161.9375 0.386719 Z M 165.796875 167.039062 " clip-rule="nonzero"/></clipPath><clipPath id="45dbf17b7b"><rect x="0" width="166" y="0" height="188"/></clipPath><clipPath id="65325bc714"><path d="M 152 167 L 319 167 L 319 352 L 152 352 Z M 152 167 " clip-rule="nonzero"/></clipPath><clipPath id="b89ee81d2e"><path d="M 70.632812 277.039062 L 235.203125 92.757812 L 318.699219 167.320312 L 154.132812 351.605469 Z M 70.632812 277.039062 " clip-rule="nonzero"/></clipPath><clipPath id="507450a636"><path d="M 152.90625 184.910156 L 318.675781 167.351562 L 154.132812 351.605469 Z M 152.90625 184.910156 " clip-rule="nonzero"/></clipPath><clipPath id="413fe55ae0"><path d="M 0.878906 0.28125 L 166.71875 0.28125 L 166.71875 184.839844 L 0.878906 184.839844 Z M 0.878906 0.28125 " clip-rule="nonzero"/></clipPath><clipPath id="5ca90bc4b6"><path d="M -81.367188 110.039062 L 83.203125 -74.242188 L 166.699219 0.320312 L 2.132812 184.605469 Z M -81.367188 110.039062 " clip-rule="nonzero"/></clipPath><clipPath id="896502045f"><path d="M 0.90625 17.910156 L 166.675781 0.351562 L 2.132812 184.605469 Z M 0.90625 17.910156 " clip-rule="nonzero"/></clipPath><clipPath id="53cab14624"><rect x="0" width="167" y="0" height="185"/></clipPath></defs><rect x="-37.5" width="450" fill="#ffffff" y="-37.499999" height="449.999989" fill-opacity="1"/><rect x="-37.5" width="450" fill="#ffffff" y="-37.499999" height="449.999989" fill-opacity="1"/><g clip-path="url(#5ed9fe14e1)"><g clip-path="url(#8add1ee55d)"><g clip-path="url(#e30b5e443e)"><g transform="matrix(1, 0, 0, 1, 56, 23)"><g clip-path="url(#45dbf17b7b)"><g clip-path="url(#c141b2b2cb)"><g clip-path="url(#6bc63f3116)"><g clip-path="url(#94e33085f3)"><path fill="#ff32a0" d="M 246.601562 73.625 L 84.964844 260.480469 L 0.300781 187.246094 L 161.9375 0.386719 Z M 246.601562 73.625 " fill-opacity="1" fill-rule="nonzero"/></g></g></g></g></g></g></g></g><g clip-path="url(#65325bc714)"><g clip-path="url(#b89ee81d2e)"><g clip-path="url(#507450a636)"><g transform="matrix(1, 0, 0, 1, 152, 167)"><g clip-path="url(#53cab14624)"><g clip-path="url(#413fe55ae0)"><g clip-path="url(#5ca90bc4b6)"><g clip-path="url(#896502045f)"><path fill="#ff32a0" d="M -81.367188 110.039062 L 83.203125 -74.242188 L 166.699219 0.320312 L 2.132812 184.605469 Z M -81.367188 110.039062 " fill-opacity="1" fill-rule="nonzero"/></g></g></g></g></g></g></g></g></svg>